<?xml version="1.0" encoding="UTF-8"?><svg id="Layer_1" xmlns="http://www.w3.org/2000/svg" viewBox="0 0 328.99 324.65"><defs><style>.cls-1{fill:#ee5025;}.cls-2{fill:#f06323;}.cls-3{fill:#5b5b59;}.cls-4{fill:#f05a24;}.cls-5{fill:#ee5425;}.cls-6{fill:#77905c;}.cls-7{fill:#ec4424;}.cls-8{fill:#f27e21;}.cls-9{fill:#232323;}.cls-10{fill:#ee5625;}.cls-11{fill:#f37223;}.cls-12{fill:#f27522;}</style></defs><rect class="cls-9" x="30.14" y="130.36" width="221.68" height="90.69"/><path class="cls-2" d="M100.8,269.25c.77.56,15.1-.22,17.83.16.37,2.3.18,4.04.16,6.25l-19.28-.11c-3.22-.02-6.13-2.94-6.19-6.2-.11-5.41-.28-10.48.08-15.92.19-2.82,3.35-5.58,6.06-5.71,4.72-.23,8.92-.13,13.6-.03,2.85.06,5.52,2.89,5.69,5.69.23,3.8.04,7.28.03,11.06l-18.66.21c-1.23.01-.1,4.01.69,4.59ZM110.09,253.38c-2.85.27-5.72-.39-8.47.26-2.01.48-2.39,3.27-2.03,5.05l12.41.04c.09-1.57.64-5.6-1.92-5.36Z"/><path class="cls-2" d="M80.55,260.8l8.5,14.53c-2.53.64-4.79.22-7.45.28l-6.77-11.51c-1.4-.17-2.52-.13-4.18-.03l-.32,11.39c-2.23.35-4.31.17-6.58.13l.03-39.92,6.75-.1-.04,19.78c0,.38-.7,1.43-.07,1.62,1.25.38,4.35,1.06,5.22-.27l5.81-8.85c2.35-.3,4.75-.49,7.31.08l-8.22,12.88Z"/><path class="cls-2" d="M51,275.49c-4.68.38-8.89.1-13.33.08-3.22,0-6.22-2.6-6.49-5.98-.42-5.22-.28-10.3-.12-15.72.08-2.77,2.93-5.86,5.69-6.07,5.14-.4,9.84-.21,15-.07,2.69.08,5.61,3.01,5.64,5.64l.15,14.13c.04,3.67-2.37,7.65-6.53,7.99ZM50.75,267.43l-.02-11.58c0-1.15-1-1.98-1.94-2.47l-9.1.09c-.69,0-1.95.6-1.96,1.4l-.07,13.02c.7,1.65,2.33,1.81,3.92,1.57,4.1-.61,9.17,1.16,9.17-2.03Z"/><path class="cls-2" d="M144.4,275.62l.05-19.33c0-1.6-.84-2.77-2.56-2.83-2.67-.09-10.01-.85-10.02,1.92v20.22s-6.28,0-6.28,0l.03-27.84c4.02-.14,4.31-.71,6.5.62-1.86-1.14,12.68-.73,14.2-.58,1.9.19,4.66,2.68,4.68,4.69l.23,23.12h-6.82Z"/><path class="cls-10" d="M215.46,256.52l.1,4.11c.12,4.95-.49,10.04.24,14.76-2.28.31-4.07.32-6.22.13-.6-.05-.32-1.3-.58-1.78-1.06.43-2.02,1.74-3.33,1.79-3.63.12-7.36.33-11.01-.1-1.59-.19-4.16-2.51-4.18-4.16l-.24-23.61h6.32s.08,19.18.08,19.18c0,1.54.99,2.83,2.53,2.89,2.61.11,9.96.62,9.96-2.29l.05-19.71,6.28-.08v8.88Z"/><path class="cls-10" d="M271.49,275.53l-.2-18.98c-.02-1.96-1.43-3.11-3.27-3.12-3.04,0-9.45-.9-9.49,2.64l-.22,19.42c-2.1.2-4.03.19-6.18,0l-.04-27.84,6.16-.03c.27.88-.19,1.53.62,2.19,1.02-1.4,2.24-2.19,3.85-2.18l8.23.04c3.83.02,6.72,3.35,6.72,7.17v20.66c-2.06.18-3.76.16-6.18.03Z"/><path class="cls-2" d="M26.07,269.3v6.39s-12.93-.17-12.93-.17c-4.4-.06-6.27-4.66-5.94-8.53.39-4.59-.13-8.85-.12-13.4l-6.93-.28c-.2-1.89-.2-3.7,0-5.61l7.1-.12.04-8.17h6.26s.02,8.2.02,8.2h12.51c.03,2,.14,3.72-.1,5.72l-12.45.11-.02,12.54c0,5.78,6.97,2.68,12.55,3.32Z"/><path class="cls-10" d="M163.59,263.97c1.56,2.11-.39,4.13,1.4,5.41.41.29.92.24,1.73.14,4.23-.54,10.57.89,10.5-1.67-.12-4.28.53-8.57-.28-12.86-.34-1.58-3.61-1.81-4.97-1.75.21-2.53,5.39-1.86,7.42-2.02.71-.05,1.31-.56,1.89-.27.52.26.7.87,1.17,1.43.27.33.79-.54.59-.89.3.9.98,1.4.97,2.45l-.16,15.35c-.03,2.83-3.08,6.23-7.1,6.25l-19.37.06.55-39.08c.39,8.81-1.27,16.03,2.03,24.49,4.26.34,2.32,2.78,3.62,2.96Z"/><path class="cls-10" d="M246.71,256.74l-7.14.06c-.08-1.11.16-2.04-.49-2.67-1.22-1.2-8.05-.99-9.61.38l-.1,21.1-6.7-.09v-27.79c2.86.18,7.28-1.32,6.94,1.8.98-.81,2.17-1.82,3.67-1.84l5.78-.09c2.45-.04,4.35.83,5.85,2.2,1.82,1.68,2.13,3.89,1.81,6.95Z"/><path class="cls-2" d="M183.05,251.49c.2.35-.32,1.21-.59.89-.47-.57-.65-1.17-1.17-1.43-.58-.29-1.18.22-1.89.27-2.03.15-7.21-.51-7.42,2.02l-7.57.31c-.41,3.09-.1,5.82-.19,8.57-.18.1-.46.26-.48.48l-.14,1.37c-1.3-.18.64-2.62-3.62-2.96-3.3-8.47-1.64-15.69-2.03-24.49-.69-2.11,4.65-1.26,6.21-1.31l.1,12.39c5.5.63,16.88-1.93,18.8,3.9Z"/><path class="cls-10" d="M163.73,262.59c.02-.23.31-.38.48-.48,0,.24-.28.44-.48.48Z"/><path class="cls-2" d="M101.09,117.22c-.37.95-1.35,1.65-1.54,2.7-.83-.63-1.64.49-2.58.84-2.92,1.09-5.91-.41-7.28-2.95s-.94-6.02,1.48-7.75c2.3-1.64,5.35-2.17,7.84-.24,2.21,1.71,3.17,4.58,2.07,7.4Z"/><path class="cls-12" d="M164.27,79.62c-.51,2.42.24,6.3,1.98,8.14,3.37,3.57,9.04,2.28,11.8-1.27,5.4-6.97,3.63-16.94,3.03-25.27,14.01,11.71,22.3,27.92,24.21,45.35.2,1.83.41,9.47-.39,10.59-.46.65-.86,2.07-.48,2.93-.72-.58-1.11-1.15-1.84-1.08-4,.35-7.46-.96-10.88-2.57-1.72-.81-3.43-.9-4.95-2.35-3.57-3.4-2.95-.11-7.71-5.27-3.27-3.54-6.87-3.07-9.67-7.67-2.31-.68-4.71-.88-7.06-2.09-1.35-.7-3.53.48-4.61-1.43-1.37,1.32-2.36,1.9-3.74,2.82l-.11-1.61c.22-.52-.28-1.36-.08-1.93.37-1.07-.74-1.88-1.02-2.85-.67-2.37-2.2-3.67-3.81-5.3-.91-.91-1.13-1.9-2.64-2.4l-4.64-1.56c-.83-.28-1.01-1.74-1.76-2.05-2.51-1.04-4.16-2.73-6.12-4.48-4.27-3.83-8.15-4.25-8.69-6.16-.68-2.42-1.65-3.36-4.14-3.96-1.5-.36-4.18-2.36-6.63.19.7-4.43,3.22-8.42,5.91-12.29l8.65-12.43c4.48.77,4.7-.29,7.88,2.92-1.42,1.52-.68,2.72-.5,4.11.2,1.61.97,2.05,1.95,3.03,2.72,2.73,1.27,7.43,7.01,6.78,2.01-.23,3.07,2.13,3.04,3.82l2.07,3.22c2.91-1.14,5.67,3.8,6.42,4.67,1.28,1.47,1.83,2.63,2.37,4.56.23.84,2.07,1.56,1.43,3.2,1.67.58,2.5-.58,3.74-.31Z"/><path class="cls-8" d="M164.27,79.62c-1.25-.27-2.07.89-3.74.31.63-1.64-1.2-2.36-1.43-3.2-.53-1.93-1.09-3.1-2.37-4.56-.75-.87-3.51-5.81-6.42-4.67l-2.07-3.22c.03-1.68-1.03-4.04-3.04-3.82-5.73.65-4.29-4.05-7.01-6.78-.98-.98-1.74-1.42-1.95-3.03-.17-1.38-.92-2.59.5-4.11-3.18-3.21-3.4-2.14-7.88-2.92,1.32-1.9,2.04-4.43,3.09-6.67,5.15-10.98,5.32-25.16,1.58-36.95,12.36,6.01,21.93,15.73,27.49,27.29,3.38,7.03,5.6,14.12,6.04,21.93.22,3.81.45,7.63.07,11.48-.65,6.53-1.57,12.79-2.86,18.93ZM163.96,77.6c0-.3-.24-.54-.54-.54s-.54.24-.54.54.24.54.54.54.54-.24.54-.54Z"/><path class="cls-1" d="M144.44,119.2c-.41,4.7,2.43,18.36-1.05,21.75-6.31-14.19-13.71-8.59-17.21-12.07-3.74-3.71-11.84-10.17-16.27-12.69-2.15-1.23-3.3-2.96-3.93-5.3-1.86-6.91-8.96-10.17-15.63-7.19-2.92,1.3-5.85,4.11-6.98,7.3-1.7,4.82-1.06,9.97-.8,14.96.09,1.67.84,3.31.12,5.18-9.57-14.48-8.67-35.12.21-48.99,1.51.6,3.58.64,4.82,2,1.6,1.75,3.22,3.32,4.54,5.29.29.43-.48,1.34-.15,1.73,1.75,2.09,3.88.85,4.63,1.95.41.6.07,1.64.25,2.36.12.46,1.32.53,1.58.99,2.35,4.1,6.71,2.49,9.28,4.32,1.35.96,2.03.67,3.41.8,3.34.3,6.87,2.2,10,2.99-.2,4.94,3.39.44,6.62,5.74,1.13.16,3.41-1.12,4.48.29,1.36,1.79,3.14,2.06,5.13,2.68s3.76,2.2,6.02,2.13c-1.06,1.51-2.72,1.99-2.03,3.38.5,1.01,2.15.31,2.97.41ZM144.1,120.83c0-.13-.11-.24-.24-.24s-.24.11-.24.24.11.24.24.24.24-.11.24-.24Z"/><path class="cls-4" d="M112.72,74.21c.02,2.26-.12,4.53.14,6.8.99-.4,1.18-1.05,1.58-1.04.51,0,.92.53,1.21,1.01,1.14,1.88,3.18,2.9,4.79,4.29l5.05,4.35c2.03,1.75,3.51,1.68,5.13,4.23,1.3,1.86,4.86,2.94,6.85,4.36,1.35.96,3.14.75,4.53,1.35,3.22,1.41,1.28,4.73,5.98,4.11-.98,1.61-1.62,3.89-2.33,5.85-1.07,3-.92,6.55-1.2,9.67-.82-.1-2.47.6-2.97-.41-.69-1.39.98-1.87,2.03-3.38-2.26.07-3.96-1.49-6.02-2.13s-3.78-.88-5.13-2.68c-1.07-1.42-3.34-.13-4.48-.29-3.23-5.3-6.82-.8-6.62-5.74-3.13-.8-6.66-2.69-10-2.99-1.37-.12-2.06.16-3.41-.8-2.57-1.82-6.93-.22-9.28-4.32-.26-.46-1.47-.52-1.58-.99-.18-.72.16-1.76-.25-2.36-.76-1.1-2.88.14-4.63-1.95-.33-.39.44-1.3.15-1.73-1.33-1.97-2.94-3.54-4.54-5.29-1.25-1.36-3.32-1.41-4.82-2,2.04-3.18,3.51-6.68,6.41-9.69,5.71-5.91,9.68-10.41,16.62-14.99-2.83,11.3-1.75,23.4,7.61,31.08-.95-2.5-2.06-12.99-.82-14.33Z"/><path class="cls-10" d="M224.11,137.97c.93,4.06.65,8.23.31,12.58-.14,1.81-1.01,3.26-1.22,4.75-.72-.25-1.63-1.25-2.54-.62-.79.54-.51,2.01-1.27,2.63-5.22.65-10.34-1.68-15.28-.76l-5.77,1.08c-2.19.41-5.5-.71-7.35,1.01-.36,1.09-.98,3.22-1.39,4.17.41,1.17,2.1,1.85,2.24,2.96-1,.15-1.99.39-3.27,0,.18-17.58-5.66-27.46-18.88-37.97,1.03.2,1.42-1.19,2.57-1.51s3.28.9,3.66,2c.42,1.2-.03,2.2,1.39,2.32,2.81.25,1.62-1.76,3.72-1.93.38-.03.63,1.15.99,1.2,3.61.51,6.31,2.47,9.27,4.32,1.49.93,3.45.92,4.53,2.84.85,1.51,2.76,0,3.86-.1,3.87-.39,7.65,3.27,8.65,2.92,1.42-.5,1.72-2.56,3.4-3.35.27,1.82,12.31,2.04,11.71,2.3.28-.12.46-.53.66-.87Z"/><path class="cls-2" d="M153.76,96.92c-2.26,1.81-4.26,4.24-5.79,6.76-4.7.62-2.76-2.7-5.98-4.11-1.39-.61-3.18-.4-4.53-1.35-1.99-1.41-5.54-2.49-6.85-4.36-1.62-2.55-3.09-2.48-5.13-4.23l-5.05-4.35c-1.61-1.39-3.65-2.41-4.79-4.29-.29-.49-.7-1.01-1.21-1.01-.4,0-.59.64-1.58,1.04-.26-2.27-.12-4.54-.14-6.8-.01-1.95.46-4.34,1.59-5.88,2.45-2.55,5.13-.56,6.63-.19,2.48.6,3.45,1.54,4.14,3.96.54,1.91,4.42,2.33,8.69,6.16,1.96,1.76,3.61,3.44,6.12,4.48.75.31.93,1.77,1.76,2.05l4.64,1.56c1.51.51,1.73,1.49,2.64,2.4,1.61,1.63,3.14,2.92,3.81,5.3.28.97,1.39,1.78,1.02,2.85Z"/><path class="cls-2" d="M204.9,117.16c.65,5.1-3.46,13.61-1.13,16.91-.83-1.07-1.76-1.63-3.21-1.86-6.33-.97-8.64-6.94-13.39-7.18-4.49-.23-4.61-2.49-10.39-4.58-1.98-.72-3.36-1.05-4.56-2.94-1.08-1.7-3.37-2.46-5.13-3.51-2.07-1.24-4-3.59-6.45-3.82-.9-.09-1.89,1.57-3.27.42-.5-.41-1.63.41-2.17.26-1.07-3.84-3.07-8.11-1.35-12.01l.11,1.61c1.38-.92,2.37-1.5,3.74-2.82,1.08,1.91,3.26.73,4.61,1.43,2.35,1.21,4.76,1.41,7.06,2.09,2.8,4.6,6.4,4.12,9.67,7.67,4.76,5.16,4.14,1.87,7.71,5.27,1.52,1.45,3.23,1.53,4.95,2.35,3.42,1.61,6.88,2.92,10.88,2.57.72-.06,1.12.51,1.84,1.08-.38-.86.02-2.28.48-2.93ZM154.24,103.44c0-.13-.11-.24-.24-.24s-.24.11-.24.24.11.24.24.24.24-.11.24-.24Z"/><path class="cls-7" d="M223.21,155.31c-1.39,10.02-6.89,19.2-13.48,26.73-3.47-2.8-6.66-4.76-10.07-6.98l-1.95-5.2c-.71-1.89-2.71-2.67-4.35-3.39-.18-.38-.58-.53-.98-.56-.17-.01-.36-.15-.53-.13-.14-1.12-1.82-1.79-2.24-2.96.41-.96,1.03-3.09,1.39-4.17,1.85-1.72,5.16-.6,7.35-1.01l5.77-1.08c4.93-.92,10.06,1.4,15.28.76.76-.62.49-2.09,1.27-2.63.9-.63,1.82.37,2.54.62Z"/><path class="cls-4" d="M203.77,134.07c.13.25.16.72.21,1.01.06.35-.14.78.05,1.15.28.54.95.23,1.4.3,1.08.16,2.43.98,3.65.27,1.01-.59,2.5-.77,3.36-1.51,3.11-2.66,4.26-6.74,4.79-10.69l.93-6.94c2.74,5.14,4.68,10.63,5.54,16.59.18,1.21.17,2.67.41,3.73-.2.34-.38.75-.66.87.6-.26-11.44-.48-11.71-2.3-1.68.79-1.97,2.85-3.4,3.35-1,.35-4.78-3.32-8.65-2.92-1.1.11-3.01,1.61-3.86.1-1.08-1.91-3.04-1.9-4.53-2.84-2.96-1.85-5.66-3.81-9.27-4.32-.37-.05-.62-1.23-.99-1.2-2.1.17-.91,2.17-3.72,1.93-1.42-.12-.98-1.12-1.39-2.32-.38-1.1-2.49-2.32-3.66-2s-1.53,1.7-2.57,1.51c-.21-.17-.33-.46-.52-.65.09-1.09,1.13-1.86,1.39-3.05-1.3-1.55-3.29-1.15-5.2-1.21-.14-.96.19-2.45-.78-3-1.25-.7-2.76.01-3.95-.38-2.66-2.54-4.47-5.23-5.43-8.67.54.15,1.67-.68,2.17-.26,1.38,1.15,2.37-.51,3.27-.42,2.44.23,4.37,2.58,6.45,3.82,1.76,1.05,4.05,1.81,5.13,3.51,1.19,1.88,2.57,2.22,4.56,2.94,5.78,2.1,5.89,4.35,10.39,4.58,4.76.24,7.06,6.21,13.39,7.18,1.46.22,2.38.79,3.21,1.86Z"/><path class="cls-10" d="M169.18,127.18c-3.19-1.22-8.04-7.16-8.55-7.65,1.2.4,2.7-.31,3.95.38.98.55.65,2.04.78,3,1.91.06,3.9-.34,5.2,1.21-.26,1.19-1.29,1.97-1.39,3.05Z"/><path class="cls-2" d="M205.43,136.53c-.44-.07-1.12.24-1.4-.3-.19-.37,0-.8-.05-1.15.65.29,1.16.8,1.45,1.45Z"/><path class="cls-10" d="M193.36,166.47c-.34-.15-.86-.06-.98-.56.39.03.8.18.98.56Z"/><circle class="cls-12" cx="163.42" cy="77.6" r=".54"/><circle class="cls-4" cx="143.86" cy="120.83" r=".24"/><circle class="cls-12" cx="154" cy="103.44" r=".24"/><path class="cls-3" d="M250.73,140.79c0-5.74-4.23-9.32-9.28-9.87-4.5-.49-8.72.01-13.28-.22v-4.38s15.08.18,15.08.18c5.72.07,11.75,5.64,11.75,12.09l-.02,73.54c0,6.76-5.45,11.34-11.6,12.79l-204.01-.03c-6.91,0-13.41-6.07-13.41-13.09l.02-72.68c0-6.43,5.72-12.47,11.92-12.52l36.63-.29c.1,1.7.12,2.88-.01,4.4l-34.56.17c-5.14.02-9.25,4.6-9.26,8.61l-.11,70.98c0,4.78,3.38,10.03,8.99,10.03l201.85.02c5.5,0,9.24-5.23,9.24-10.37l.06-69.35Z"/><path class="cls-11" d="M203.07,183.58c-.71,1.07-2.06,1.75-1.45,3.13l-.53-.46c-.13-.18-.29-.34-.48-.46l-7.97-4.91c-2,2.75-5.53,3.27-8.3,1.69-2.26-1.3-3.58-4.43-2.51-7.14l-8.59-4.82c-3.59-2.01-6.78-4.49-10.42-6.11-2.38,2.03-5.43,2.47-7.59.78s-2.89-4.2-1.89-6.91l-7.07-4.66c-3.93-2.59-7.92-4.79-11.63-7.52-.74.89-1.19,1.89-2.32,2.19-2.17.59-5.06.2-6.55-1.62-1.78-2.17-1.67-5-.89-7.62l-25.3-19.22c.19-1.04,1.17-1.75,1.54-2.7,2.06.59,3.74,2.19,5.61,3.59l12.7,9.55,8.14,6.21c2.42-.61,4.77-.82,6.9.58,1.73,1.14,1.95,3.96,2.61,5.86l18.18,12.35c2.34-1.83,5.02-2.21,6.97-.9,2.26,1.52,3.22,3.84,2.51,6.84l18.84,11.19c2.03-1.69,4-2.54,6.23-1.73,6.83,2.49,1.5,6.13,6.39,8.45,2.49,1.18,4.79,2.87,6.92,4.36Z"/><path class="cls-8" d="M95.82,131.69c-.07.93.39.99.72.99s.8-.06.72-.99h.97c-.07.93.39.99.72.99s.8-.06.72-.99h1.93c-.09.87.3,1.11.71.97.16-.06.32-.23.26-.97h1.45c-.03.87.43.97.94.97h3.89s-.61,28.13-.61,28.13l-6.52-1.64c-1.78-.45-4.18-.91-6.09-1.23-1.06-.18-3.63.43-4-1.2l-.21-23.92c.98-.19,1.6-.14,1.97-1.11h2.41Z"/><path class="cls-12" d="M129.14,154.88c-1.22,1.45,5.25,1.21,6.28.53.12-.08.35.04.48,0l.48-.04h.97l-.07,27.51c-.67-.7-.55-1.47-1.37-1.5-7.73-.3-8.96-2.12-14.98-2.82v-23.19c2.54-1.11,5.47-.47,8.21-.48Z"/><path class="cls-1" d="M108.86,190.09v16.47h-17.87v-20.72c1.72-.64,3.43-.85,5.35-1.05s3.48.91,3.4,2.84c1.46,1.44,3.19,1.61,5.09,1.76,1.36.1,2.58,1.16,4.03.7Z"/><path class="cls-4" d="M91.47,164.54l.05,6.18c1.39.78,2.72-.38,3.98-.21,3.21.43,6.14,1.2,9.66,1.04,2.72,2.68,2.05,5.65,3.07,5.17.24,2.61-.23,9.98.62,10.04v3.33c-1.45.46-2.67-.6-4.03-.7-1.9-.15-3.63-.32-5.09-1.76.08-1.93-1.54-3.03-3.4-2.84s-3.62.4-5.35,1.05v-21.78h.48v.48Z"/><path class="cls-5" d="M120.93,178.55l-.02,12.17c1.53.91,3.36,1.51,5.26,1.45,2.55-.08,1.76,1.46,8.22,1.76,1.05.05,1.96-.83,2.82-.38.22,1.75-.02,3.56.41,5.49.54,2.47.07,4.9.22,7.52l-17.4-.05v-28.45h.5v.48Z"/><path class="cls-11" d="M93.4,131.69c-.38.96-1,.91-1.97,1.11l.21,23.92c.37,1.64,2.93,1.02,4,1.2,1.91.32,4.32.78,6.09,1.23l6.52,1.64c0,.92.24,1.85.12,2.77-.32.03-.81.02-.96.27-.17.29,0,.56.27.61.18.04.41.07.69.09v10.63c0,.51-.18,1.05-.13,1.55-1.02.47-.35-2.49-3.07-5.17-3.52.16-6.46-.61-9.66-1.04-1.26-.17-2.59,1-3.98.21l-.05-6.18c.25.06.36-.07.49-.24.12-.16.05-.48-.2-.68-.13-.11-.36.17-.29.44h-.48v-32.36h2.41ZM91.67,162.6c.45-1.42.49-2.23,0-2.93-.35,1.16-.32,2.05,0,2.93Z"/><path class="cls-2" d="M137.83,184.83c-.38-.04-.49.44-.49.94v6.79c-.09.25-.17.74-.14,1-.86-.45-1.77.42-2.82.38-6.46-.3-5.67-1.84-8.22-1.76-1.89.06-3.73-.55-5.26-1.45l.02-12.17c6.02.7,7.25,2.52,14.98,2.82.82.03.7.8,1.37,1.5l.07-27.51c.21,0,.49.09.49.49v28.97Z"/><path class="cls-4" d="M166.15,195.96c-.08,3.44.3,6.86.13,10.61l-16.81-.05v-14.93c.98.88.07,2.29.57,4.04,1.34-1.05,2.4-2.19,4.21-1.79,1.49.33,2.87-.28,4.32-.21,6.43.32,4.03,2.02,7.58,2.33Z"/><path class="cls-11" d="M166.17,181.93c-.86-2.88-.02-5.93-.37-9.18h-15.89s0,9.44,0,9.44c2.5,1.04,4.81.54,7.29.72l6.14.46c.77.06,1.54,1.64,2.45.94.69,1.09.57,2.45.54,3.9l-.18,7.76c-3.55-.31-1.15-2.01-7.58-2.33-1.45-.07-2.83.54-4.32.21-1.81-.4-2.87.74-4.21,1.79-.5-1.75.41-3.16-.58-4.04l-.05-19.32h16.9s-.15,9.66-.15,9.66ZM150.1,185.79c.43-1.27.49-1.92-.02-2.44-.32.98-.33,1.75.02,2.44Z"/><path class="cls-5" d="M201.62,186.71c-.61-1.38.74-2.07,1.45-3.13l17.11,12.06c1.81-2.01,1.91-5.5,2.95-5.88.28-.1,1.1-.28,1.28.23l5.41,15.94c-3.72-.47-13.54-1.59-15.75-4.41,1.38-1.17,3.2-1.59,4.49-3.02-6.08-3.92-11.87-7.4-16.94-11.77Z"/><path class="cls-8" d="M166.17,181.93c.25.82-.03,1.71-.38,2.38-.91.7-1.68-.88-2.45-.94l-6.14-.46c-2.48-.19-4.79.32-7.29-.72v-9.44s15.88,0,15.88,0c.35,3.24-.49,6.3.37,9.18Z"/><path class="cls-2" d="M177.42,190.62c-.17,1.89.58,3.79.41,5.79l-.28,3.3c1.53.35,1.13-1.85,1.92-2.44,2-1.51,2.37,1.56,9.12.06,1.34-.3,2.81.46,4.17-.53.42,1.57-.38,2.65.42,4l.17-11.62-14.48-.02c-.33,0-.56-.28-.5-.47h15.45s.01,17.88.01,17.88l-16.93-.05c.39-5.51-.66-10.86.5-15.89Z"/><path class="cls-12" d="M178.39,188.69c-.06.19.17.47.5.47l14.48.02-.17,11.62c-.8-1.35,0-2.43-.42-4-1.36.99-2.83.23-4.17.53-6.75,1.51-7.12-1.56-9.12-.06-.79.6-.39,2.79-1.92,2.44l.28-3.3c.17-2-.59-3.9-.41-5.79-.02-.75-.01-1.1.13-1.54.1-.3.46-.39.84-.39Z"/><path class="cls-6" d="M41.69,158.11c-.77.31-2.2-2.04-1.44-2.71,2.77-2.44,6-3.97,8.77-6.17l-8.42-6.32c-.91-.68.15-2.84,1.31-3.11l11.78,8.35c.34.24.48.6.5.77.2,1.42-10.57,8.03-12.51,9.2Z"/><path class="cls-6" d="M73.12,155.85c.04.84.59,2.38-.15,2.78l-15.61.1c-.31-1.17-.16-2.02-.18-2.88h15.93Z"/><path class="cls-2" d="M108.86,175.17h-.48v-11.59c.11-.92-.13-1.86-.12-2.77l.61-28.14v42.51Z"/><path class="cls-2" d="M120.93,178.07h-.48c0-7.59-.49-15.29.48-22.7v22.7Z"/><path class="cls-3" d="M73.12,155.85h-15.93c-.04-.37.44-.5.95-.5h14.04c.5,0,.99.12.95.5Z"/><path class="cls-2" d="M135.41,155.41c-1.03.68-7.5.92-6.28-.53l5.34-.03c.52,0,1.01.18.94.56Z"/><path class="cls-1" d="M108.86,186.76c-.84-.06-.37-7.43-.62-10.04-.05-.5.13-1.04.13-1.55h.48v11.59Z"/><path class="cls-5" d="M137.34,192.56v-6.79c0-.5.11-.98.48-.94,0,2.57.43,5.34-.48,7.73Z"/><path class="cls-11" d="M108.86,132.66h-3.89c-.51,0-.97-.09-.94-.97h4.83v.97Z"/><path class="cls-11" d="M99.68,131.69c.07.93-.39.99-.72.99s-.8-.06-.72-.99h1.45Z"/><path class="cls-11" d="M97.27,131.69c.07.93-.39.99-.72.99s-.8-.06-.72-.99h1.45Z"/><path class="cls-11" d="M102.58,131.69c.07.73-.09.91-.26.97-.41.14-.8-.1-.71-.97h.97Z"/><path class="cls-2" d="M136.38,155.36l-.48.04c.1-.56.46-.61.48-.04Z"/><path class="cls-5" d="M201.08,186.25c-.16-.14-.31-.35-.48-.46.19.12.35.28.48.46Z"/><path class="cls-8" d="M91.47,164.54v-.48c-.07-.27.15-.55.29-.44.24.21.32.52.2.68-.13.17-.23.3-.49.24Z"/><path class="cls-8" d="M91.67,162.6c-.32-.87-.35-1.77,0-2.93.49.7.45,1.5,0,2.93Z"/><path class="cls-8" d="M108.37,163.57v.97c-.28-.02-.5-.05-.69-.09-.27-.05-.44-.32-.27-.61.15-.24.64-.24.96-.27Z"/><path class="cls-8" d="M150.1,185.79c-.34-.69-.34-1.46-.02-2.44.51.52.45,1.17.02,2.44Z"/><path class="cls-6" d="M7.52,292.69v-1.39l4.11-2.31-4.08-2.05v-1.34l5.6,2.98v.79l-5.63,3.33Z"/><path class="cls-6" d="M27.5,293.16v-6.86h-2.18v-1.24h5.89v1.24h-2.3v6.86h-1.4Z"/><path class="cls-6" d="M35.04,293.26c-.43,0-.83-.07-1.2-.2-.37-.14-.69-.33-.96-.59s-.48-.58-.63-.96-.22-.81-.22-1.29.07-.93.22-1.32.35-.72.6-.99c.26-.27.56-.48.9-.62.35-.14.72-.21,1.12-.21.36,0,.69.06,1,.18.31.12.59.3.83.54.24.24.43.54.57.91.14.36.21.78.21,1.26,0,.08,0,.19,0,.31s-.01.22-.02.31h-4c.02.27.07.5.17.69.1.19.22.35.38.47.16.12.33.21.52.28.19.06.39.09.6.09.18,0,.36-.02.53-.05.17-.03.33-.1.48-.18.15-.09.3-.2.44-.34l.75.73c-.19.23-.41.41-.64.57-.24.15-.49.26-.77.32s-.56.1-.85.1ZM33.47,289.48h2.57c0-.2-.03-.37-.08-.53-.06-.16-.14-.29-.24-.4-.1-.11-.23-.19-.38-.24-.15-.05-.33-.08-.53-.08-.17,0-.32.02-.47.07-.15.05-.29.12-.41.23-.12.11-.22.24-.3.4-.08.16-.13.34-.16.56Z"/><path class="cls-6" d="M39.18,287.22h1.52v1.7s-.18-.1-.18-.1c.03-.27.11-.51.23-.72.12-.21.26-.39.44-.55.18-.16.37-.27.58-.35s.43-.12.66-.12c.34,0,.64.05.92.16.27.11.53.28.76.53l-.62,1.23-.04.1-.12-.05c-.03-.07-.05-.14-.08-.21-.03-.07-.09-.16-.2-.25-.12-.1-.25-.17-.38-.22-.13-.05-.28-.08-.44-.08-.21,0-.41.03-.6.1-.19.07-.36.17-.5.32-.14.14-.26.33-.34.55-.08.22-.12.49-.12.79v3.1h-1.49v-5.94Z"/><path class="cls-6" d="M44.91,293.16v-5.94h1.23v.46c.1-.14.21-.25.33-.34.11-.09.23-.15.36-.19.13-.04.25-.06.37-.06.15,0,.29.02.42.07.13.05.25.13.36.23.11.11.19.25.25.42.1-.16.2-.3.32-.41.12-.11.26-.19.42-.24.16-.05.34-.08.53-.08.23,0,.42.04.57.11.16.08.28.19.38.33s.17.32.21.54c.04.21.06.45.06.71v4.37h-1.27v-4.05c0-.25-.01-.45-.04-.59-.03-.14-.06-.24-.12-.29-.05-.05-.12-.08-.21-.08-.11,0-.22.05-.33.16-.1.11-.19.25-.25.43-.06.18-.1.4-.1.64v3.79h-1.2v-4.01c0-.41-.03-.68-.09-.81-.06-.14-.17-.2-.34-.2-.08,0-.15.03-.23.08s-.14.12-.19.22c-.06.1-.1.22-.14.37-.03.15-.05.32-.05.5v3.86h-1.27Z"/><path class="cls-6" d="M52.11,293.16v-1.16h1.48v-3.63h-1.4v-1.16h2.89v4.78h1.35v1.16h-4.32ZM54.27,285.97c-.25,0-.47-.09-.65-.26-.18-.17-.27-.38-.27-.62,0-.26.09-.47.26-.64s.39-.25.66-.25c.24,0,.46.09.64.26.19.17.28.38.28.62s-.09.45-.28.62c-.19.17-.4.26-.64.26Z"/><path class="cls-6" d="M58.24,293.16v-5.94h1.47v.84c.15-.19.31-.36.48-.51s.37-.26.58-.34c.21-.08.44-.12.68-.12.36,0,.68.08.98.25.29.17.53.43.72.8.18.37.27.85.27,1.44v3.58h-1.47v-3.54c0-.33-.03-.6-.1-.8s-.17-.35-.31-.45c-.13-.1-.29-.15-.47-.15-.17,0-.33.03-.49.1-.16.06-.31.16-.44.29-.13.13-.23.28-.31.45-.08.17-.12.37-.12.59v3.52h-1.47Z"/><path class="cls-6" d="M66.6,293.26c-.67,0-1.19-.15-1.55-.46-.37-.31-.55-.71-.55-1.2,0-.31.07-.61.21-.87s.36-.5.64-.69c.29-.2.64-.35,1.07-.45.42-.11.91-.16,1.46-.16h.26c.1,0,.22,0,.34,0,.12,0,.23.02.34.03l.04,1.01c-.09,0-.19-.02-.31-.02-.12,0-.25,0-.37-.01-.13,0-.23,0-.32,0-.35,0-.64.02-.88.07s-.43.12-.58.21c-.15.09-.26.19-.33.31s-.1.25-.1.39c0,.13.02.24.07.34.05.09.11.16.2.22.08.05.18.09.29.12.11.02.23.04.36.04.26,0,.49-.04.68-.12s.36-.21.49-.38c.13-.17.23-.39.3-.65s.1-.57.1-.93c0-.48-.05-.85-.16-1.11-.1-.26-.26-.44-.46-.54-.2-.1-.45-.16-.75-.16-.28,0-.54.05-.79.14-.25.09-.49.26-.72.5l-.81-.88c.34-.32.72-.55,1.13-.69.42-.14.83-.21,1.25-.21.38,0,.74.04,1.07.13.33.08.62.23.86.43s.44.47.58.82c.14.34.21.77.21,1.28v3.42h-1.52v-.7c-.11.15-.23.27-.36.38s-.27.19-.42.25c-.15.06-.3.11-.47.14-.17.03-.34.05-.52.05Z"/><path class="cls-6" d="M71.34,293.16v-1.16h1.7v-6.33h-1.62v-1.16h3.11v7.49h1.69v1.16h-4.88Z"/><path class="cls-6" d="M86.52,293.17c-.2-.06-.38-.15-.55-.28-.17-.13-.32-.27-.46-.45l-.25.71h-1.12v-8.65h1.6v.12c-.05.05-.08.11-.1.17-.01.06-.02.17-.02.32v2.79c.1-.12.2-.23.31-.34s.24-.19.38-.27.28-.13.44-.16c.15-.03.31-.05.46-.05.37,0,.71.06,1.01.19.3.13.55.31.77.56.21.25.38.56.49.93.12.37.18.81.18,1.3,0,.54-.07,1.01-.2,1.41-.13.4-.32.73-.55.99-.23.26-.5.46-.8.59-.3.13-.62.2-.96.2-.22,0-.42-.03-.62-.09ZM87.37,292.01c.16-.07.31-.18.43-.33.12-.15.22-.35.29-.59.07-.24.1-.54.1-.89,0-.32-.03-.6-.09-.85-.06-.25-.15-.46-.26-.63s-.25-.3-.41-.39c-.16-.09-.34-.14-.55-.14-.25,0-.47.08-.66.23-.19.15-.33.38-.42.67-.1.29-.15.64-.16,1.05,0,.32.02.6.07.84.05.25.12.45.22.62.1.17.23.3.38.39.15.09.33.13.54.13.18,0,.35-.04.52-.11Z"/><path class="cls-6" d="M92.78,293.26c-.24,0-.47-.03-.69-.1-.22-.06-.41-.16-.58-.29-.17-.13-.32-.3-.45-.5-.13-.2-.22-.45-.29-.73-.07-.28-.1-.61-.1-.97v-3.46h1.48v3.44c0,.26.02.48.06.66.04.18.11.33.19.44.09.11.19.19.31.25.12.05.24.08.37.08.18,0,.35-.03.5-.09.15-.06.28-.16.39-.28.11-.13.19-.28.25-.47.06-.19.09-.41.09-.67v-3.34h1.47v5c0,.19,0,.36.02.5.01.15.05.3.11.44h-1.34c-.04-.09-.07-.19-.09-.28-.02-.09-.03-.19-.03-.28s0-.19,0-.27c-.1.15-.2.28-.32.4-.12.12-.25.21-.4.29-.14.08-.29.14-.46.18-.16.04-.32.06-.49.06Z"/><path class="cls-6" d="M97.68,287.22h1.52v1.7s-.18-.1-.18-.1c.03-.27.11-.51.23-.72.12-.21.26-.39.44-.55.18-.16.37-.27.58-.35s.43-.12.66-.12c.34,0,.64.05.92.16.27.11.53.28.76.53l-.62,1.23-.04.1-.12-.05c-.03-.07-.05-.14-.08-.21-.03-.07-.09-.16-.2-.25-.12-.1-.25-.17-.38-.22-.13-.05-.28-.08-.44-.08-.21,0-.41.03-.6.1-.19.07-.36.17-.5.32-.14.14-.26.33-.34.55-.08.22-.12.49-.12.79v3.1h-1.49v-5.94Z"/><path class="cls-6" d="M103.74,293.16v-5.94h1.47v.84c.15-.19.31-.36.48-.51s.37-.26.58-.34c.21-.08.44-.12.68-.12.36,0,.68.08.98.25.29.17.53.43.72.8.18.37.27.85.27,1.44v3.58h-1.47v-3.54c0-.33-.03-.6-.1-.8s-.17-.35-.31-.45c-.13-.1-.29-.15-.47-.15-.17,0-.33.03-.49.1-.16.06-.31.16-.44.29-.13.13-.23.28-.31.45-.08.17-.12.37-.12.59v3.52h-1.47Z"/><path class="cls-6" d="M111.5,293.07c-.3-.13-.57-.32-.8-.58-.23-.26-.42-.59-.55-.97s-.2-.84-.2-1.37.06-.95.19-1.33.31-.7.54-.96c.23-.26.5-.45.8-.58.3-.13.63-.19.99-.19.2,0,.39.03.58.08.19.05.36.13.51.23.15.1.27.24.37.41v-3.29h1.57v.12c-.05.05-.08.11-.1.17-.01.06-.02.16-.02.31v7.25c-.01.14,0,.27.01.4.02.13.06.26.12.4h-1.44c-.04-.1-.07-.18-.09-.25-.02-.06-.03-.13-.03-.2s0-.15,0-.25c-.1.18-.23.33-.39.46-.16.12-.32.21-.51.27s-.38.08-.58.08c-.34,0-.66-.06-.96-.19ZM113.23,291.96c.15-.08.28-.2.38-.35s.17-.36.22-.6c.05-.25.07-.52.07-.84,0-.43-.04-.79-.13-1.08-.09-.29-.22-.5-.4-.64-.18-.14-.42-.21-.7-.21-.2,0-.38.04-.55.13-.17.09-.3.21-.4.38-.1.17-.18.37-.24.6-.06.23-.08.49-.08.78,0,.41.06.76.18,1.05.12.29.28.51.47.67s.42.24.66.24c.2,0,.37-.04.53-.12Z"/><path class="cls-6" d="M119.26,293.26c-.54,0-1.02-.13-1.46-.39s-.78-.62-1.03-1.09c-.25-.47-.38-1-.38-1.61s.13-1.11.38-1.58c.25-.47.6-.83,1.03-1.11s.93-.41,1.46-.41,1.04.14,1.48.41.78.64,1.04,1.11c.26.47.38.99.38,1.58s-.13,1.15-.38,1.61c-.26.47-.6.83-1.04,1.09s-.93.39-1.48.39ZM119.26,292.09c.29,0,.53-.08.74-.24.21-.16.37-.39.5-.68.13-.29.19-.62.19-1s-.06-.73-.19-1.01c-.13-.28-.29-.5-.5-.66-.21-.15-.46-.23-.74-.23-.26,0-.5.08-.71.23-.21.15-.38.37-.51.66-.13.28-.19.62-.19,1.01s.06.71.18,1c.12.29.29.51.5.68.21.16.45.24.72.24Z"/><path class="cls-6" d="M123.76,293.16l-1.12-5.94h1.27l.69,4.06.86-3.39h.77l1.01,3.36c.08-.56.14-1.04.19-1.43.05-.39.08-.72.11-1,.03-.27.04-.51.05-.71,0-.2.01-.39.01-.56v-.34h1.25c-.05.63-.13,1.29-.22,1.97-.1.68-.2,1.36-.32,2.03s-.24,1.32-.36,1.94h-1.29l-.85-3.22-.78,3.22h-1.29Z"/><path class="cls-6" d="M129.74,293.16v-5.94h1.47v.84c.15-.19.31-.36.48-.51s.37-.26.58-.34c.21-.08.44-.12.68-.12.36,0,.68.08.98.25.29.17.53.43.72.8.18.37.27.85.27,1.44v3.58h-1.47v-3.54c0-.33-.03-.6-.1-.8s-.17-.35-.31-.45c-.13-.1-.29-.15-.47-.15-.17,0-.33.03-.49.1-.16.06-.31.16-.44.29-.13.13-.23.28-.31.45-.08.17-.12.37-.12.59v3.52h-1.47Z"/><path class="cls-6" d="M144.41,293.04c-.38-.15-.71-.36-.99-.63s-.5-.59-.66-.96c-.16-.37-.23-.78-.23-1.23s.08-.84.23-1.21c.16-.38.38-.71.66-.99.28-.28.61-.51.99-.67s.79-.25,1.24-.25c.55,0,1.04.1,1.46.31s.75.49.99.86l-.82.9-.08.09-.1-.08c0-.07,0-.14-.03-.21-.02-.07-.07-.16-.17-.27-.17-.16-.35-.27-.55-.33-.2-.06-.43-.08-.69-.08-.22,0-.42.04-.62.13-.2.09-.37.21-.53.37s-.28.36-.36.6-.13.52-.13.83c0,.28.05.54.14.77.09.23.21.42.36.58.15.16.33.29.53.37.2.09.42.13.64.13.18,0,.36-.03.53-.08.17-.05.34-.13.51-.24.17-.11.33-.25.47-.44l.82.94c-.32.36-.69.61-1.12.77-.42.16-.85.24-1.29.24s-.85-.08-1.23-.23Z"/><path class="cls-6" d="M149.24,284.51h1.59v.12c-.04.05-.07.11-.08.17-.01.06-.02.17-.02.32v2.91c.15-.22.32-.39.51-.53.19-.13.4-.24.62-.31.22-.07.44-.1.64-.1.39,0,.73.08,1.02.25.29.17.52.43.68.8.16.37.24.85.24,1.43v3.58h-1.48v-3.54c0-.35-.03-.62-.1-.83-.07-.21-.17-.35-.29-.44s-.28-.13-.45-.13c-.15,0-.29.02-.43.06-.14.04-.26.11-.38.2-.11.09-.21.2-.3.32-.09.13-.16.27-.2.43-.04.16-.06.34-.06.53v3.39h-1.48v-8.65Z"/><path class="cls-6" d="M157.6,293.26c-.67,0-1.19-.15-1.55-.46s-.55-.71-.55-1.2c0-.31.07-.61.21-.87.14-.27.36-.5.64-.69s.64-.35,1.07-.45c.42-.11.91-.16,1.46-.16h.26c.1,0,.22,0,.34,0,.12,0,.23.02.34.03l.04,1.01c-.09,0-.19-.02-.31-.02s-.25,0-.37-.01c-.13,0-.23,0-.32,0-.35,0-.64.02-.88.07s-.43.12-.58.21-.26.19-.33.31-.1.25-.1.39c0,.13.02.24.07.34.05.09.11.16.19.22.08.05.18.09.29.12.11.02.23.04.36.04.26,0,.49-.04.68-.12.19-.08.36-.21.49-.38.13-.17.23-.39.3-.65.06-.26.1-.57.1-.93,0-.48-.05-.85-.16-1.11-.1-.26-.26-.44-.46-.54-.2-.1-.45-.16-.75-.16-.28,0-.54.05-.79.14s-.49.26-.72.5l-.81-.88c.34-.32.71-.55,1.13-.69s.83-.21,1.25-.21c.38,0,.74.04,1.07.13.33.08.62.23.86.43s.44.47.58.82c.14.34.21.77.21,1.28v3.42h-1.52v-.7c-.11.15-.23.27-.36.38-.13.1-.27.19-.42.25-.15.06-.3.11-.47.14-.16.03-.34.05-.52.05Z"/><path class="cls-6" d="M162.68,287.22h1.52v1.7s-.18-.1-.18-.1c.03-.27.11-.51.23-.72s.26-.39.44-.55c.18-.16.37-.27.59-.35.21-.08.43-.12.66-.12.34,0,.64.05.92.16.27.11.53.28.76.53l-.62,1.23-.04.1-.12-.05c-.03-.07-.05-.14-.08-.21-.03-.07-.09-.16-.19-.25-.12-.1-.25-.17-.38-.22-.13-.05-.28-.08-.44-.08-.21,0-.41.03-.6.1-.19.07-.36.17-.5.32-.14.14-.26.33-.34.55-.08.22-.12.49-.12.79v3.1h-1.5v-5.94Z"/><path class="cls-6" d="M168.79,287.22h4.65v1.16h-4.68l.03-1.16ZM171,293.1c-.26-.11-.47-.29-.64-.54s-.29-.58-.36-.98-.1-.92-.07-1.52l.17-4.27,1.52-.19h.12s.01.1.01.1c-.04.06-.07.12-.1.18-.04.06-.06.16-.07.31l-.14,1.76.07.09-.1,1.99c-.03.55,0,.98.06,1.28.07.3.17.51.3.62.13.11.3.17.49.17.28,0,.53-.06.75-.17.22-.11.43-.24.62-.39l.31,1.07c-.29.22-.61.38-.94.5-.33.12-.69.18-1.07.18-.35,0-.65-.06-.9-.17Z"/><path class="cls-6" d="M182.83,288.36h-1.31v-1.14h1.31v-.37c0-.56.12-1.01.34-1.36.23-.35.54-.62.92-.79.38-.17.79-.26,1.23-.26.41,0,.79.07,1.14.21.35.14.65.35.89.62l-.55,1-.07.1-.1-.06c-.03-.06-.05-.12-.08-.19s-.1-.15-.21-.24c-.15-.1-.29-.18-.44-.23-.15-.05-.32-.07-.51-.07-.23,0-.42.05-.6.14-.17.1-.3.24-.39.42-.09.18-.13.42-.13.69v.38h1.82v1.14h-1.82v4.8h-1.46v-4.8Z"/><path class="cls-6" d="M190.76,293.26c-.54,0-1.03-.13-1.46-.39s-.78-.62-1.03-1.09c-.25-.47-.38-1-.38-1.61s.12-1.11.38-1.58c.25-.47.6-.83,1.03-1.11s.92-.41,1.46-.41,1.04.14,1.48.41c.44.27.78.64,1.04,1.11.25.47.38.99.38,1.58s-.13,1.15-.38,1.61c-.26.47-.6.83-1.04,1.09-.44.26-.93.39-1.48.39ZM190.76,292.09c.29,0,.53-.08.74-.24.21-.16.38-.39.5-.68.13-.29.19-.62.19-1s-.06-.73-.19-1.01c-.13-.28-.29-.5-.5-.66-.21-.15-.45-.23-.74-.23-.26,0-.5.08-.71.23-.21.15-.38.37-.51.66-.13.28-.19.62-.19,1.01s.06.71.18,1c.12.29.29.51.5.68.21.16.45.24.72.24Z"/><path class="cls-6" d="M195.18,287.22h1.52v1.7s-.18-.1-.18-.1c.03-.27.11-.51.23-.72s.26-.39.44-.55c.18-.16.37-.27.59-.35.21-.08.43-.12.66-.12.34,0,.64.05.92.16.27.11.53.28.76.53l-.62,1.23-.04.1-.12-.05c-.03-.07-.05-.14-.08-.21-.03-.07-.09-.16-.19-.25-.12-.1-.25-.17-.38-.22-.13-.05-.28-.08-.44-.08-.21,0-.41.03-.6.1-.19.07-.36.17-.5.32-.14.14-.26.33-.34.55-.08.22-.12.49-.12.79v3.1h-1.5v-5.94Z"/><path class="cls-6" d="M207.79,287.22h4.65v1.16h-4.68l.03-1.16ZM210,293.1c-.26-.11-.47-.29-.64-.54s-.29-.58-.36-.98-.1-.92-.07-1.52l.17-4.27,1.52-.19h.12s.01.1.01.1c-.04.06-.07.12-.1.18-.04.06-.06.16-.07.31l-.14,1.76.07.09-.1,1.99c-.03.55,0,.98.06,1.28.07.3.17.51.3.62.13.11.3.17.49.17.28,0,.53-.06.75-.17.22-.11.43-.24.62-.39l.31,1.07c-.29.22-.61.38-.94.5-.33.12-.69.18-1.07.18-.35,0-.65-.06-.9-.17Z"/><path class="cls-6" d="M216.76,293.26c-.54,0-1.03-.13-1.46-.39s-.78-.62-1.03-1.09c-.25-.47-.38-1-.38-1.61s.12-1.11.38-1.58c.25-.47.6-.83,1.03-1.11s.92-.41,1.46-.41,1.04.14,1.48.41c.44.27.78.64,1.04,1.11.25.47.38.99.38,1.58s-.13,1.15-.38,1.61c-.26.47-.6.83-1.04,1.09-.44.26-.93.39-1.48.39ZM216.76,292.09c.29,0,.53-.08.74-.24.21-.16.38-.39.5-.68.13-.29.19-.62.19-1s-.06-.73-.19-1.01c-.13-.28-.29-.5-.5-.66-.21-.15-.45-.23-.74-.23-.26,0-.5.08-.71.23-.21.15-.38.37-.51.66-.13.28-.19.62-.19,1.01s.06.71.18,1c.12.29.29.51.5.68.21.16.45.24.72.24Z"/><path class="cls-6" d="M222.67,290.45l-.48.48v2.24h-1.5v-8.65h1.6v.12c-.04.05-.07.11-.08.17-.01.06-.02.16-.02.31v4.23l2.31-2.21c.07,0,.14.02.22.03s.16.02.23.03c.08,0,.16.02.23.02s.14,0,.2,0h.7l-2.41,2.33,2.73,3.6-1.68.06-2.07-2.77Z"/><path class="cls-6" d="M230.04,293.26c-.43,0-.83-.07-1.2-.2s-.69-.33-.96-.59c-.27-.26-.48-.58-.63-.96s-.22-.81-.22-1.29.07-.93.22-1.32.35-.72.6-.99c.26-.27.56-.48.9-.62.35-.14.72-.21,1.12-.21.36,0,.69.06,1,.18.31.12.59.3.83.54.24.24.43.54.57.91.14.36.21.78.21,1.26,0,.08,0,.19,0,.31,0,.12-.01.22-.02.31h-4c.02.27.07.5.17.69.1.19.22.35.38.47.16.12.33.21.52.28.19.06.39.09.6.09.18,0,.36-.02.53-.05s.33-.1.48-.18c.15-.09.3-.2.44-.34l.75.73c-.19.23-.41.41-.64.57-.24.15-.49.26-.77.32-.27.06-.56.1-.85.1ZM228.47,289.48h2.57c0-.2-.03-.37-.08-.53-.06-.16-.14-.29-.24-.4-.1-.11-.23-.19-.38-.24s-.33-.08-.53-.08c-.17,0-.32.02-.47.07s-.29.12-.41.23c-.12.11-.22.24-.3.4-.08.16-.13.34-.16.56Z"/><path class="cls-6" d="M233.74,293.16v-5.94h1.47v.84c.15-.19.31-.36.48-.51.17-.15.37-.26.58-.34.21-.08.44-.12.68-.12.36,0,.68.08.98.25.29.17.53.43.71.8.18.37.27.85.27,1.44v3.58h-1.47v-3.54c0-.33-.03-.6-.1-.8-.07-.2-.17-.35-.31-.45-.13-.1-.29-.15-.47-.15-.17,0-.33.03-.49.1-.16.06-.31.16-.44.29s-.23.28-.31.45c-.08.17-.12.37-.12.59v3.52h-1.47Z"/><path class="cls-6" d="M248.78,293.26c-.24,0-.47-.03-.69-.1-.22-.06-.41-.16-.58-.29-.17-.13-.32-.3-.45-.5-.12-.2-.22-.45-.29-.73s-.1-.61-.1-.97v-3.46h1.48v3.44c0,.26.02.48.06.66.04.18.11.33.2.44.09.11.19.19.31.25.12.05.24.08.37.08.18,0,.35-.03.5-.09.15-.06.28-.16.39-.28.11-.13.19-.28.25-.47s.09-.41.09-.67v-3.34h1.47v5c0,.19,0,.36.02.5.01.15.05.3.11.44h-1.34c-.04-.09-.07-.19-.09-.28s-.03-.19-.03-.28c0-.1,0-.19,0-.27-.1.15-.2.28-.33.4s-.25.21-.4.29c-.14.08-.29.14-.46.18-.16.04-.32.06-.49.06Z"/><path class="cls-6" d="M254.84,293.17c-.34-.06-.65-.17-.94-.31s-.55-.33-.79-.55l.65-1.2.05-.1.1.07c.03.06.05.13.08.2.03.07.09.16.2.25.22.18.46.33.74.43s.61.16.99.16c.24,0,.45-.03.62-.08.17-.05.3-.12.39-.22.09-.09.14-.2.14-.32,0-.1-.03-.19-.08-.27-.05-.08-.13-.14-.25-.2s-.26-.12-.44-.18c-.18-.06-.4-.13-.65-.21-.44-.11-.83-.25-1.15-.41s-.57-.37-.75-.6c-.17-.24-.26-.51-.26-.82,0-.33.1-.62.29-.87.19-.25.47-.45.83-.6s.78-.22,1.26-.22c.25,0,.49.02.71.06.23.04.44.1.64.17.2.07.39.17.57.29.18.12.34.25.5.41l-.72,1-.09.1-.09-.08c0-.07-.03-.14-.06-.2-.03-.07-.1-.15-.2-.24-.17-.13-.37-.23-.59-.29-.22-.06-.44-.09-.66-.09-.29,0-.55.04-.76.13-.21.09-.32.23-.32.41,0,.11.05.21.14.3.1.09.25.17.47.25.22.08.51.17.88.26.49.13.88.27,1.19.44.31.17.53.36.68.59s.21.49.21.8c0,.33-.1.64-.29.93-.19.29-.47.52-.84.69s-.83.25-1.37.25c-.36,0-.71-.03-1.05-.1Z"/><path class="cls-6" d="M261.6,293.26c-.67,0-1.19-.15-1.55-.46s-.55-.71-.55-1.2c0-.31.07-.61.21-.87.14-.27.36-.5.64-.69s.64-.35,1.07-.45c.42-.11.91-.16,1.46-.16h.26c.1,0,.22,0,.34,0,.12,0,.23.02.34.03l.04,1.01c-.09,0-.19-.02-.31-.02s-.25,0-.37-.01c-.13,0-.23,0-.32,0-.35,0-.64.02-.88.07s-.43.12-.58.21-.26.19-.33.31-.1.25-.1.39c0,.13.02.24.07.34.05.09.11.16.19.22.08.05.18.09.29.12.11.02.23.04.36.04.26,0,.49-.04.68-.12.19-.08.36-.21.49-.38.13-.17.23-.39.3-.65.06-.26.1-.57.1-.93,0-.48-.05-.85-.16-1.11-.1-.26-.26-.44-.46-.54-.2-.1-.45-.16-.75-.16-.28,0-.54.05-.79.14s-.49.26-.72.5l-.81-.88c.34-.32.71-.55,1.13-.69s.83-.21,1.25-.21c.38,0,.74.04,1.07.13.33.08.62.23.86.43s.44.47.58.82c.14.34.21.77.21,1.28v3.42h-1.52v-.7c-.11.15-.23.27-.36.38-.13.1-.27.19-.42.25-.15.06-.3.11-.47.14-.16.03-.34.05-.52.05Z"/><path class="cls-6" d="M268.63,295.4c-.43,0-.82-.04-1.16-.11s-.62-.18-.86-.32c-.23-.14-.41-.3-.54-.49-.13-.19-.19-.4-.19-.64,0-.2.05-.39.16-.57.1-.18.25-.33.42-.46s.37-.23.58-.31l.66.27c-.11.08-.22.16-.33.24-.11.08-.2.17-.26.26-.07.1-.1.21-.1.34,0,.11.04.2.13.29.09.08.21.15.36.2.16.05.34.09.55.12.21.02.44.04.69.04.33,0,.61-.03.83-.08s.4-.14.52-.24c.12-.1.18-.22.18-.34s-.03-.23-.1-.31-.2-.14-.38-.17c-.18-.03-.44-.05-.77-.05-.28,0-.55-.01-.82-.04-.27-.03-.52-.07-.76-.13s-.45-.14-.63-.23c-.18-.1-.32-.22-.42-.36-.1-.14-.15-.32-.15-.52,0-.28.08-.53.25-.73.17-.21.38-.39.62-.56l.68.39c-.09.08-.16.14-.23.19-.07.05-.12.1-.15.15-.04.05-.05.11-.05.2,0,.1.07.19.2.25.13.07.35.12.66.15.31.03.71.05,1.2.05.39,0,.71.04.97.12.26.08.47.19.62.34.16.15.27.32.34.51.07.19.11.39.11.6,0,.25-.06.5-.17.73s-.29.44-.52.63c-.23.19-.53.33-.89.44-.36.11-.79.16-1.28.16ZM268.51,291.14c-.42,0-.81-.09-1.15-.26-.34-.18-.61-.42-.81-.72-.19-.31-.29-.65-.29-1.03s.1-.72.29-1.03c.2-.31.46-.55.81-.74.34-.18.73-.28,1.15-.28s.82.09,1.15.28c.33.19.6.43.79.74.2.31.29.65.29,1.03s-.1.72-.29,1.03c-.2.31-.46.55-.79.72-.33.18-.72.26-1.15.26ZM268.5,290.08c.19,0,.36-.04.51-.12s.27-.19.36-.34.14-.31.14-.49-.05-.34-.14-.47-.21-.25-.36-.33-.32-.12-.51-.12c-.17,0-.34.04-.49.13s-.28.2-.37.33c-.1.14-.14.29-.14.46s.05.33.14.47.21.26.36.35.32.13.5.13ZM270.38,288.35l-.56-.69c.24-.2.52-.35.83-.46.31-.1.65-.14,1.01-.12l.14,1.01c-.26-.05-.52-.06-.77-.01-.25.04-.47.13-.66.26Z"/><path class="cls-6" d="M275.54,293.26c-.43,0-.83-.07-1.2-.2s-.69-.33-.96-.59c-.27-.26-.48-.58-.63-.96s-.22-.81-.22-1.29.07-.93.22-1.32.35-.72.6-.99c.26-.27.56-.48.9-.62.35-.14.72-.21,1.12-.21.36,0,.69.06,1,.18.31.12.59.3.83.54.24.24.43.54.57.91.14.36.21.78.21,1.26,0,.08,0,.19,0,.31,0,.12-.01.22-.02.31h-4c.02.27.07.5.17.69.1.19.22.35.38.47.16.12.33.21.52.28.19.06.39.09.6.09.18,0,.36-.02.53-.05s.33-.1.48-.18c.15-.09.3-.2.44-.34l.75.73c-.19.23-.41.41-.64.57-.24.15-.49.26-.77.32-.27.06-.56.1-.85.1ZM273.97,289.48h2.57c0-.2-.03-.37-.08-.53-.06-.16-.14-.29-.24-.4-.1-.11-.23-.19-.38-.24s-.33-.08-.53-.08c-.17,0-.32.02-.47.07s-.29.12-.41.23c-.12.11-.22.24-.3.4-.08.16-.13.34-.16.56Z"/></svg>